<svg width="59" height="59" viewBox="0 0 59 59" fill="none" xmlns="http://www.w3.org/2000/svg">
<path d="M45.0558 12H13.9445C11.5 12 9.5 14 9.5 16.4445V47.5558C9.5 50.0003 11.5 52.0003 13.9445 52.0003H45.0558C47.5003 52.0003 49.5003 50.0003 49.5003 47.5558V16.4445C49.5003 14 47.5003 12 45.0558 12ZM45.0558 47.5558H13.9445V16.4445H45.0558V47.5558Z" fill="white"/>
<path d="M27.8329 22.4916H16.7217V25.8249H27.8329V22.4916Z" fill="white"/>
<path d="M42.8329 40.333H31.7217V43.6664H42.8329V40.333Z" fill="white"/>
<path d="M42.8329 34.7772H31.7217V38.1106H42.8329V34.7772Z" fill="white"/>
<path d="M20.6095 45.3333H23.9429V40.8888H28.3874V37.5554H23.9429V33.111H20.6095V37.5554H16.165V40.8888H20.6095V45.3333Z" fill="white"/>
<path d="M34.1437 29.667L37.277 26.5336L40.4104 29.667L42.7659 27.3114L39.6326 24.1558L42.7659 21.0224L40.4104 18.6669L37.277 21.8002L34.1437 18.6669L31.7881 21.0224L34.9214 24.1558L31.7881 27.3114L34.1437 29.667Z" fill="white"/>
</svg>
