<svg width="59" height="59" viewBox="0 0 59 59" fill="none" xmlns="http://www.w3.org/2000/svg">
<path fill-rule="evenodd" clip-rule="evenodd" d="M31.8371 50.6842L33.0023 48.7148C33.9053 47.1883 34.3569 46.4229 35.0836 46.0015C35.8103 45.5779 36.724 45.5629 38.5515 45.5307C41.2519 45.4855 42.944 45.32 44.363 44.7309C45.6672 44.1906 46.8523 43.3988 47.8505 42.4005C48.8488 41.4023 49.6406 40.2172 50.1809 38.913C51 36.9393 51 34.4345 51 29.425V27.275C51 20.2381 51 16.7185 49.4155 14.1342C48.5296 12.6877 47.3139 11.4713 45.868 10.5846C43.2815 9 39.762 9 32.725 9H26.275C19.2381 9 15.7185 9 13.1342 10.5846C11.6877 11.4704 10.4713 12.6861 9.58455 14.1321C8 16.7185 8 20.2402 8 27.275V29.425C8 34.4345 8 36.9393 8.817 38.913C9.35749 40.2174 10.1497 41.4026 11.1483 42.4009C12.1469 43.3991 13.3324 44.1908 14.6371 44.7309C16.0561 45.32 17.7481 45.4833 20.4485 45.5307C22.276 45.5629 23.1898 45.5779 23.9165 46.0015C24.641 46.4229 25.0947 47.1862 25.9977 48.7148L27.163 50.6842C28.2014 52.4386 30.7965 52.4386 31.8371 50.6842ZM38.1 30.5C38.6702 30.5 39.2171 30.2735 39.6203 29.8703C40.0235 29.4671 40.25 28.9202 40.25 28.35C40.25 27.7798 40.0235 27.2329 39.6203 26.8297C39.2171 26.4265 38.6702 26.2 38.1 26.2C37.5298 26.2 36.9829 26.4265 36.5797 26.8297C36.1765 27.2329 35.95 27.7798 35.95 28.35C35.95 28.9202 36.1765 29.4671 36.5797 29.8703C36.9829 30.2735 37.5298 30.5 38.1 30.5ZM31.65 28.35C31.65 28.9202 31.4235 29.4671 31.0203 29.8703C30.6171 30.2735 30.0702 30.5 29.5 30.5C28.9298 30.5 28.3829 30.2735 27.9797 29.8703C27.5765 29.4671 27.35 28.9202 27.35 28.35C27.35 27.7798 27.5765 27.2329 27.9797 26.8297C28.3829 26.4265 28.9298 26.2 29.5 26.2C30.0702 26.2 30.6171 26.4265 31.0203 26.8297C31.4235 27.2329 31.65 27.7798 31.65 28.35ZM20.9 30.5C21.4702 30.5 22.0171 30.2735 22.4203 29.8703C22.8235 29.4671 23.05 28.9202 23.05 28.35C23.05 27.7798 22.8235 27.2329 22.4203 26.8297C22.0171 26.4265 21.4702 26.2 20.9 26.2C20.3298 26.2 19.7829 26.4265 19.3797 26.8297C18.9765 27.2329 18.75 27.7798 18.75 28.35C18.75 28.9202 18.9765 29.4671 19.3797 29.8703C19.7829 30.2735 20.3298 30.5 20.9 30.5Z" fill="#111827"/>
</svg>
