<svg width="51" height="44" viewBox="0 0 51 44" fill="none" xmlns="http://www.w3.org/2000/svg">
<path d="M25.5018 1.87378C37.8268 1.87378 47.8164 9.65978 47.8164 19.2669C47.8164 28.8719 37.8268 36.6579 25.5039 36.6579C24.277 36.6557 23.0513 36.5777 21.834 36.4242L12.467 42.5505C11.4024 43.1137 11.0263 43.052 11.464 41.6729L13.3595 33.8572C7.23953 30.7547 3.19141 25.3784 3.19141 19.2669C3.19141 9.66191 13.1768 1.87378 25.5018 1.87378ZM38.0584 19.0013L41.1822 15.9753C41.3624 15.7881 41.463 15.5382 41.4627 15.2784C41.4623 15.0185 41.3612 14.7689 41.1805 14.5822C40.9998 14.3954 40.7536 14.2861 40.4939 14.2772C40.2342 14.2683 39.9812 14.3606 39.7882 14.5345L35.6912 18.4998V15.223C35.6912 14.957 35.5855 14.7019 35.3974 14.5138C35.2093 14.3257 34.9542 14.22 34.6882 14.22C34.4221 14.22 34.167 14.3257 33.9789 14.5138C33.7908 14.7019 33.6852 14.957 33.6852 15.223V20.6567C33.6498 20.8119 33.6498 20.9731 33.6852 21.1284V24.1863C33.6852 24.4523 33.7908 24.7074 33.9789 24.8955C34.167 25.0836 34.4221 25.1893 34.6882 25.1893C34.9542 25.1893 35.2093 25.0836 35.3974 24.8955C35.5855 24.7074 35.6912 24.4523 35.6912 24.1863V21.2899L36.5985 20.4123L39.633 24.7324C39.7088 24.8403 39.8051 24.9321 39.9163 25.0028C40.0276 25.0734 40.1517 25.1215 40.2815 25.1442C40.4114 25.1669 40.5444 25.1638 40.6731 25.135C40.8017 25.1063 40.9234 25.0525 41.0313 24.9768C41.1391 24.901 41.231 24.8048 41.3017 24.6935C41.3723 24.5822 41.4204 24.4581 41.4431 24.3283C41.4657 24.1984 41.4626 24.0654 41.4339 23.9368C41.4052 23.8081 41.3514 23.6864 41.2757 23.5785L38.0584 19.0013ZM31.7727 23.0898H28.6702V15.2549C28.6583 14.9972 28.5475 14.7539 28.3609 14.5757C28.1743 14.3975 27.9262 14.2981 27.6682 14.2981C27.4102 14.2981 27.1621 14.3975 26.9755 14.5757C26.7889 14.7539 26.6782 14.9972 26.6663 15.2549V24.0928C26.6663 24.6453 27.1125 25.0958 27.6672 25.0958H31.7727C32.0387 25.0958 32.2938 24.9901 32.4819 24.802C32.67 24.6139 32.7757 24.3588 32.7757 24.0928C32.7757 23.8268 32.67 23.5717 32.4819 23.3836C32.2938 23.1955 32.0387 23.0898 31.7727 23.0898ZM19.3265 20.7714L20.8055 17.1419L22.1613 20.7693L19.3265 20.7714ZM24.6879 21.8063L24.6922 21.7723C24.6914 21.5196 24.595 21.2767 24.4223 21.0923L22.1995 15.1423C22.1064 14.8587 21.9289 14.6104 21.6908 14.4304C21.4527 14.2504 21.1654 14.1474 20.8672 14.135C20.567 14.1349 20.2739 14.2255 20.0262 14.3951C19.7786 14.5646 19.588 14.8051 19.4795 15.0849L15.9478 23.7443C15.8472 23.9906 15.8485 24.2667 15.9516 24.512C16.0546 24.7573 16.2508 24.9516 16.4971 25.0522C16.7434 25.1528 17.0195 25.1515 17.2648 25.0484C17.5101 24.9454 17.7044 24.7492 17.805 24.5029L18.5105 22.7753H22.9093L23.5425 24.4753C23.5857 24.6024 23.654 24.7195 23.7433 24.8197C23.8326 24.9199 23.941 25.0012 24.0623 25.0587C24.1836 25.1162 24.3151 25.1488 24.4492 25.1545C24.5833 25.1603 24.7172 25.1391 24.8429 25.0921C24.9687 25.0452 25.0837 24.9735 25.1812 24.8813C25.2788 24.7891 25.3568 24.6782 25.4107 24.5553C25.4646 24.4324 25.4933 24.2999 25.4951 24.1657C25.4968 24.0315 25.4717 23.8983 25.421 23.774L24.6879 21.8063ZM17.6265 15.2655C17.6271 15.1338 17.6016 15.0033 17.5515 14.8815C17.5015 14.7597 17.4278 14.649 17.3348 14.5558C17.2417 14.4626 17.1312 14.3887 17.0095 14.3383C16.8878 14.288 16.7573 14.2622 16.6257 14.2625H9.73003C9.46402 14.2625 9.2089 14.3682 9.0208 14.5563C8.8327 14.7444 8.72703 14.9995 8.72703 15.2655C8.72703 15.5315 8.8327 15.7867 9.0208 15.9748C9.2089 16.1629 9.46402 16.2685 9.73003 16.2685H12.195V24.2075C12.195 24.4735 12.3007 24.7287 12.4888 24.9168C12.6769 25.1049 12.932 25.2105 13.198 25.2105C13.464 25.2105 13.7192 25.1049 13.9073 24.9168C14.0954 24.7287 14.201 24.4735 14.201 24.2075V16.2685H16.6235C16.7554 16.2691 16.8861 16.2435 17.008 16.1933C17.13 16.1431 17.2408 16.0693 17.334 15.976C17.4273 15.8828 17.5011 15.772 17.5513 15.65C17.6015 15.5281 17.6271 15.3974 17.6265 15.2655Z" fill="#111827"/>
</svg>
