<svg width="20" height="20" viewBox="0 0 20 20" fill="none" xmlns="http://www.w3.org/2000/svg">
<path d="M10 9.58338C10.8653 9.58338 11.7112 9.32679 12.4306 8.84606C13.1501 8.36532 13.7108 7.68204 14.042 6.88262C14.3731 6.08319 14.4597 5.20352 14.2909 4.35486C14.1221 3.50619 13.7054 2.72664 13.0936 2.11478C12.4817 1.50293 11.7022 1.08625 10.8535 0.91744C10.0049 0.74863 9.12519 0.83527 8.32576 1.1664C7.52633 1.49754 6.84305 2.05829 6.36232 2.77776C5.88159 3.49722 5.625 4.34308 5.625 5.20838C5.625 6.3687 6.08594 7.4815 6.90641 8.30197C7.72688 9.12244 8.83968 9.58338 10 9.58338ZM10 10.8334C7.28828 10.8334 1.875 12.5084 1.875 15.8334V18.3334H18.125V15.8334C18.125 12.5084 12.7117 10.8334 10 10.8334Z" fill="#1F6FEB"/>
</svg>
