<svg width="18" height="20" viewBox="0 0 18 20" fill="none" xmlns="http://www.w3.org/2000/svg">
<path d="M14.3333 10H16.2C16.4122 10 16.6157 10.0711 16.7657 10.1977C16.9157 10.3243 17 10.496 17 10.675V18.325C17 18.504 16.9157 18.6757 16.7657 18.8023C16.6157 18.9289 16.4122 19 16.2 19H1.8C1.58783 19 1.38434 18.9289 1.23431 18.8023C1.08429 18.6757 1 18.504 1 18.325V10.675C1 10.496 1.08429 10.3243 1.23431 10.1977C1.38434 10.0711 1.58783 10 1.8 10H3.66667M14.3333 10V5.5C14.3333 4.00038 13.2667 1 9 1C4.73333 1 3.66667 4.00038 3.66667 5.5V10M14.3333 10H3.66667" stroke="#1F6FEB" stroke-width="2" stroke-linecap="round" stroke-linejoin="round"/>
</svg>
